<?xml version="1.0" standalone="no"?>
<!DOCTYPE svg PUBLIC "-//W3C//DTD SVG 20010904//EN"
 "http://www.w3.org/TR/2001/REC-SVG-20010904/DTD/svg10.dtd">
<svg version="1.0" xmlns="http://www.w3.org/2000/svg"
 width="600.000000pt" height="450.000000pt" viewBox="0 0 600.000000 450.000000"
 preserveAspectRatio="xMidYMid meet">

<g transform="translate(0.000000,450.000000) scale(0.100000,-0.100000)"
fill="#000000" stroke="none">
<path d="M2052 3183 c16 -4 18 -23 21 -171 l3 -167 2 173 2 172 -22 -1 c-17
-1 -18 -3 -6 -6z"/>
<path d="M1793 2953 c15 -2 37 -2 50 0 12 2 0 4 -28 4 -27 0 -38 -2 -22 -4z"/>
<path d="M1643 2943 c9 -2 23 -2 30 0 6 3 -1 5 -18 5 -16 0 -22 -2 -12 -5z"/>
<path d="M1568 2933 c7 -3 16 -2 19 1 4 3 -2 6 -13 5 -11 0 -14 -3 -6 -6z"/>
<path d="M1428 2919 c-2 -3 -32 -30 -68 -60 -94 -78 -220 -200 -215 -209 5 -8
-79 -93 -91 -91 -5 1 -9 -5 -9 -11 -1 -7 -6 -12 -11 -11 -6 1 -42 -29 -80 -68
-37 -38 -75 -69 -84 -70 -11 0 -12 -2 -1 -6 8 -3 45 25 90 68 42 41 24 21 -39
-44 -109 -111 -147 -136 -164 -109 -10 16 24 50 60 62 19 7 33 14 31 16 -3 3
-35 -7 -71 -22 l-67 -27 21 -22 c11 -12 18 -23 16 -26 -2 -2 51 -3 120 -1
l124 3 0 35 c0 105 52 185 242 369 105 103 172 157 264 211 16 10 13 12 -23
15 -24 3 -44 2 -45 -2z m-228 -222 c0 -2 -12 -14 -27 -28 l-28 -24 24 28 c23
25 31 32 31 24z"/>
<path d="M1738 2910 c-217 -14 -310 -60 -474 -233 -125 -133 -214 -264 -214
-316 0 -25 7 -44 20 -56 18 -17 35 -18 212 -11 106 4 251 11 323 17 257 19
285 34 285 146 0 37 7 151 15 253 8 101 11 188 7 191 -14 14 -58 16 -174 9z
m169 -47 c-3 -21 -11 -123 -17 -228 -14 -241 -16 -252 -43 -269 -33 -21 -107
-34 -241 -42 l-118 -7 6 49 c3 27 13 132 21 234 22 264 22 268 48 276 43 14
125 22 236 23 l114 1 -6 -37z m-432 -272 c-9 -113 -18 -223 -22 -243 l-6 -38
-92 0 c-51 0 -107 -3 -124 -6 l-31 -6 0 89 c0 92 -8 113 -42 113 -27 0 -23 10
37 82 77 95 183 198 241 237 l49 32 3 -27 c2 -15 -4 -120 -13 -233z m-291
-162 c10 -64 1 -132 -17 -126 -7 2 -17 37 -24 78 -17 107 -17 111 10 107 18
-2 23 -12 31 -59z"/>
<path d="M1992 2265 c1 -98 1 -99 8 -34 5 36 4 81 0 100 -6 24 -8 5 -8 -66z"/>
<path d="M549 2163 c-13 -16 -12 -17 4 -4 9 7 17 15 17 17 0 8 -8 3 -21 -13z"/>
<path d="M972 2023 l-2 -142 -42 -3 c-24 -2 2 -4 57 -4 55 0 76 2 48 4 l-52 3
-4 142 -3 142 -2 -142z"/>
<path d="M398 2053 c7 -3 16 -2 19 1 4 3 -2 6 -13 5 -11 0 -14 -3 -6 -6z"/>
<path d="M770 2045 c0 -11 11 -15 40 -15 29 0 40 4 40 15 0 11 -11 15 -40 15
-29 0 -40 -4 -40 -15z"/>
<path d="M2083 1965 c0 -44 2 -61 4 -37 2 23 2 59 0 80 -2 20 -4 1 -4 -43z"/>
<path d="M279 2003 c-13 -16 -12 -17 4 -4 9 7 17 15 17 17 0 8 -8 3 -21 -13z"/>
<path d="M1983 1975 c0 -27 2 -38 4 -22 2 15 2 37 0 50 -2 12 -4 0 -4 -28z"/>
<path d="M402 1970 c0 -14 2 -19 5 -12 2 6 2 18 0 25 -3 6 -5 1 -5 -13z"/>
<path d="M252 1911 c-10 -29 -9 -31 14 -31 25 0 33 14 12 24 -7 3 -3 3 10 0
14 -3 22 -1 22 7 0 7 -3 9 -7 6 -3 -4 -14 0 -24 8 -15 15 -18 14 -27 -14z"/>
<path d="M366 1911 c-4 -6 -2 -11 4 -11 6 0 8 -6 4 -12 -6 -10 -4 -10 7 0 9 9
10 15 2 23 -8 8 -13 8 -17 0z"/>
<path d="M349 1853 c-13 -16 -12 -17 4 -4 9 7 17 15 17 17 0 8 -8 3 -21 -13z"/>
<path d="M785 1836 c-39 -18 -90 -52 -114 -74 l-44 -41 -136 -4 -136 -3 150
-2 c83 -1 156 -6 163 -11 24 -15 -7 -17 -138 -10 -223 13 -326 11 -340 -6 -7
-8 -17 -12 -22 -9 -13 9 -3 -45 24 -118 24 -68 78 -122 135 -136 87 -22 230
-46 261 -44 26 2 32 -2 32 -18 0 -10 -8 -23 -17 -29 -17 -9 -16 -11 4 -30 25
-23 48 -27 59 -9 4 7 19 -12 36 -46 55 -110 165 -186 279 -194 57 -4 119 9
142 32 6 6 29 22 49 34 49 30 96 86 121 141 11 25 25 50 31 57 7 6 63 14 131
18 213 11 255 17 255 32 0 12 34 14 194 14 178 0 194 1 192 18 -1 14 9 17 62
20 59 3 62 2 62 -20 l0 -23 335 3 c326 2 335 3 335 22 0 11 2 20 6 20 14 0
510 -51 589 -61 50 -6 92 -15 95 -19 9 -12 80 -22 80 -10 0 5 -5 10 -11 10
-16 0 -2 52 18 68 15 10 14 12 -9 12 -15 0 -39 -5 -55 -12 -27 -11 -27 -12 -5
-16 13 -2 21 -9 19 -15 -4 -14 -1 -14 -92 -4 -38 5 -196 22 -350 38 -154 17
-281 35 -283 40 -2 5 -142 9 -333 9 l-329 0 0 50 0 50 319 0 c307 0 381 -4
381 -20 0 -4 -9 -10 -20 -13 -16 -4 -20 -12 -17 -31 1 -14 5 -27 7 -29 3 -3
43 -7 90 -10 l85 -5 -60 12 c-52 10 -57 13 -40 23 23 13 321 29 359 19 15 -4
31 -17 36 -31 11 -29 54 -35 68 -9 8 15 17 16 91 4 44 -8 81 -17 81 -21 0 -3
32 -10 70 -13 65 -7 70 -9 70 -30 0 -22 -3 -23 -45 -18 -41 4 -45 3 -45 -17 0
-18 6 -21 39 -21 44 0 52 -8 72 -70 18 -59 63 -116 129 -165 l53 -40 -44 -5
c-29 -4 0 -8 86 -12 72 -4 164 -3 205 1 41 4 62 9 46 10 -23 1 -26 4 -17 14 6
8 8 16 5 20 -3 3 4 8 15 12 21 6 111 101 111 116 0 17 64 112 68 101 6 -19 56
-14 75 8 10 12 23 18 29 14 8 -5 9 3 5 26 -4 18 -7 39 -7 46 0 8 -7 14 -16 14
-11 0 -14 8 -12 33 l3 32 71 3 c54 2 76 -1 87 -13 35 -35 97 -41 97 -9 0 14
20 18 73 14 15 -1 43 4 63 10 40 14 39 14 47 -21 7 -26 6 -27 -61 -35 l-67 -9
-3 -73 c-2 -59 0 -73 13 -78 15 -6 465 38 580 56 29 5 51 4 53 -1 5 -12 42
-11 42 1 0 6 14 10 30 10 17 0 30 -4 30 -10 0 -5 5 -10 10 -10 6 0 10 29 10
66 0 41 -4 63 -10 59 -5 -3 -10 3 -10 14 0 12 -4 21 -10 21 -5 0 -10 -4 -10
-10 0 -21 -31 -9 -40 16 -14 35 -14 34 25 34 35 0 35 0 35 45 0 45 0 45 -35
45 -57 0 -44 26 17 33 58 7 68 17 68 70 l0 37 -1759 0 -1760 0 -4 33 c-3 25
-4 22 -5 -15 -2 -35 -6 -48 -19 -51 -17 -4 -17 -5 0 -6 18 -1 22 -18 8 -39 -6
-10 -21 -12 -55 -7 -41 7 -47 10 -42 28 3 11 1 16 -3 11 -4 -5 -13 -47 -19
-94 -7 -49 -18 -91 -27 -100 -13 -12 -53 -16 -230 -18 l-214 -3 -78 112 c-101
146 -148 198 -201 221 -24 11 -46 18 -48 15 -3 -3 9 -9 25 -15 17 -6 31 -14
31 -17 0 -6 -299 3 -350 12 l-35 6 30 13 c17 7 23 13 15 14 -9 0 -47 -15 -85
-34z m1584 -152 c10 -9 -65 -3 -78 5 -10 6 1 8 30 4 24 -3 46 -7 48 -9z
m-1562 -11 c-20 -2 -52 -2 -70 0 -17 2 0 4 38 4 39 0 53 -2 32 -4z m446 0
c-18 -2 -48 -2 -65 0 -18 2 -4 4 32 4 36 0 50 -2 33 -4z m2150 -10 l-512 -3
-4 -23 c-4 -19 -4 -18 -6 6 l-1 27 518 -2 517 -3 -512 -2z m1005 0 c-26 -2
-71 -2 -100 0 -29 2 -8 3 47 3 55 0 79 -1 53 -3z m825 0 c-139 -2 -367 -2
-505 0 -139 1 -26 2 252 2 278 0 391 -1 253 -2z m-2093 -23 c0 -6 -47 -10
-120 -10 -73 0 -120 4 -120 10 0 6 47 10 120 10 73 0 120 -4 120 -10z m318
-17 c2 -9 -11 -13 -47 -13 -39 0 -51 4 -51 16 0 12 10 14 47 12 26 -2 48 -9
51 -15z m2021 -75 c1 -17 -28 -18 -491 -16 l-493 3 483 2 482 3 1 53 1 52 9
-40 c4 -22 8 -48 8 -57z m-1999 45 c0 -5 -32 -8 -70 -8 -39 0 -70 3 -70 8 0 4
32 7 70 7 39 0 70 -3 70 -7z m-2407 -37 c75 -27 110 -81 110 -166 0 -61 -17
-101 -60 -142 -63 -60 -149 -73 -223 -35 -61 31 -83 65 -88 136 -7 100 41 173
137 207 46 17 76 17 124 0z m2385 -3 c-3 -14 -13 -18 -48 -18 -35 0 -45 4 -48
18 -3 14 4 17 48 17 44 0 51 -3 48 -17z m750 -12 c71 -50 96 -157 55 -236 -43
-82 -107 -119 -198 -113 -95 6 -153 57 -168 148 -14 79 34 173 106 210 58 29
158 25 205 -9z m-899 -7 c2 -2 -62 -4 -142 -3 -90 0 -149 4 -153 10 -4 8 40 9
142 4 82 -4 151 -9 153 -11z m414 -1 c-40 -2 -107 -2 -150 0 -43 1 -10 3 72 3
83 0 118 -2 78 -3z m690 0 c-7 -2 -19 -2 -25 0 -7 3 -2 5 12 5 14 0 19 -2 13
-5z m-3723 -29 c0 -17 -22 -14 -28 4 -2 7 3 12 12 12 9 0 16 -7 16 -16z m682
-29 c8 -50 2 -75 -21 -75 -13 0 -22 15 -33 55 -8 30 -13 57 -9 60 3 3 17 5 31
3 20 -2 26 -10 32 -43z m4048 35 c8 -5 11 -10 5 -10 -5 0 -17 5 -25 10 -8 5
-10 10 -5 10 6 0 17 -5 25 -10z m-1650 -10 c0 -6 -55 -10 -145 -10 -90 0 -145
4 -145 10 0 6 55 10 145 10 90 0 145 -4 145 -10z m1573 3 c-7 -2 -21 -2 -30 0
-10 3 -4 5 12 5 17 0 24 -2 18 -5z m-2388 -13 c-3 -5 -10 -10 -16 -10 -5 0 -9
5 -9 10 0 6 7 10 16 10 8 0 12 -4 9 -10z m802 -16 c-3 -3 -12 -4 -19 -1 -8 3
-5 6 6 6 11 1 17 -2 13 -5z m-3137 -33 c0 -20 -17 -37 -27 -28 -7 8 7 47 18
47 5 0 9 -9 9 -19z m1460 -11 c0 -12 -173 -12 -210 0 -16 5 18 8 93 9 72 1
117 -3 117 -9z"/>
<path d="M930 1539 c-44 -18 -113 -100 -97 -116 3 -2 8 5 12 17 4 14 12 19 24
15 23 -7 61 32 43 44 -21 13 12 33 62 38 39 5 44 3 43 -13 -2 -14 6 -20 26
-22 32 -4 35 7 7 31 -22 19 -80 22 -120 6z"/>
<path d="M950 1420 c-11 -11 -20 -29 -20 -40 0 -27 43 -70 70 -70 29 0 60 35
60 68 0 57 -69 83 -110 42z m85 -10 c9 -27 -11 -59 -40 -66 -28 -7 -55 10 -55
34 0 45 82 73 95 32z"/>
<path d="M1120 1423 c0 -10 5 -25 10 -33 13 -21 31 0 24 28 -7 26 -34 30 -34
5z"/>
<path d="M821 1394 c0 -11 3 -14 6 -6 3 7 2 16 -1 19 -3 4 -6 -2 -5 -13z"/>
<path d="M840 1347 c0 -7 6 -21 13 -32 17 -22 32 -5 22 25 -7 22 -35 28 -35 7z"/>
<path d="M1087 1282 c-21 -22 -21 -32 -4 -32 18 0 49 34 40 43 -10 11 -19 8
-36 -11z"/>
<path d="M934 1249 c-8 -13 13 -29 39 -29 23 0 22 17 -2 30 -25 13 -28 13 -37
-1z"/>
<path d="M4039 1550 c-41 -12 -77 -39 -99 -75 -11 -18 -20 -36 -20 -41 0 -5 4
-3 8 4 5 7 6 -15 4 -48 -4 -55 -2 -61 26 -90 17 -16 37 -30 45 -30 8 0 17 -9
20 -20 3 -13 14 -20 30 -20 20 0 25 5 24 20 -1 12 -8 20 -19 20 -10 0 -32 12
-48 28 -59 52 -48 152 20 187 76 39 159 -3 169 -87 l6 -45 22 27 22 27 -23 44
c-29 53 -79 89 -126 90 -32 1 -33 2 -10 9 l25 8 -25 0 c-14 0 -37 -3 -51 -8z"/>
<path d="M4055 1479 c-10 -15 3 -25 16 -12 7 7 7 13 1 17 -6 3 -14 1 -17 -5z"/>
<path d="M4140 1450 c0 -5 5 -10 10 -10 6 0 10 5 10 10 0 6 -4 10 -10 10 -5 0
-10 -4 -10 -10z"/>
<path d="M4036 1431 c-26 -28 -18 -79 16 -104 26 -20 30 -20 62 -5 43 21 55
61 28 97 -25 34 -80 40 -106 12z m89 -7 c13 -14 14 -19 3 -25 -10 -7 -10 -9 0
-9 6 0 12 -9 12 -20 0 -14 -5 -18 -17 -13 -12 5 -15 2 -10 -10 5 -12 1 -17
-13 -17 -11 0 -20 6 -20 13 0 9 -2 9 -9 -1 -11 -18 -41 11 -41 40 0 49 61 76
95 42z"/>
<path d="M4090 1419 c0 -5 5 -7 10 -4 6 3 10 8 10 11 0 2 -4 4 -10 4 -5 0 -10
-5 -10 -11z"/>
<path d="M3980 1410 c0 -5 7 -10 16 -10 8 0 12 5 9 10 -3 6 -10 10 -16 10 -5
0 -9 -4 -9 -10z"/>
<path d="M4165 1360 c-3 -5 1 -10 9 -10 9 0 16 5 16 10 0 6 -4 10 -9 10 -6 0
-13 -4 -16 -10z"/>
<path d="M4010 1320 c0 -5 5 -10 10 -10 6 0 10 5 10 10 0 6 -4 10 -10 10 -5 0
-10 -4 -10 -10z"/>
<path d="M4176 1294 c-17 -16 -22 -44 -8 -44 14 0 53 46 45 53 -10 11 -20 8
-37 -9z"/>
<path d="M4100 1290 c0 -5 5 -10 10 -10 6 0 10 5 10 10 0 6 -4 10 -10 10 -5 0
-10 -4 -10 -10z"/>
<path d="M1108 1863 c7 -3 16 -2 19 1 4 3 -2 6 -13 5 -11 0 -14 -3 -6 -6z"/>
<path d="M1973 1815 c0 -22 2 -30 4 -17 2 12 2 30 0 40 -3 9 -5 -1 -4 -23z"/>
<path d="M310 1830 c-9 -6 -10 -10 -3 -10 6 0 15 5 18 10 8 12 4 12 -15 0z"/>
<path d="M253 1723 c9 -2 23 -2 30 0 6 3 -1 5 -18 5 -16 0 -22 -2 -12 -5z"/>
<path d="M3150 1440 c30 -5 75 -8 100 -8 l45 1 -50 7 c-27 5 -72 8 -100 8
l-50 -1 55 -7z"/>
<path d="M3360 1420 c123 -17 168 -20 136 -10 -16 5 -68 11 -115 14 -83 5 -84
5 -21 -4z"/>
<path d="M3538 1403 c7 -3 16 -2 19 1 4 3 -2 6 -13 5 -11 0 -14 -3 -6 -6z"/>
</g>
</svg>
