<?xml version="1.0" standalone="no"?>
<!DOCTYPE svg PUBLIC "-//W3C//DTD SVG 20010904//EN"
 "http://www.w3.org/TR/2001/REC-SVG-20010904/DTD/svg10.dtd">
<svg version="1.0" xmlns="http://www.w3.org/2000/svg"
 width="421.000000pt" height="320.000000pt" viewBox="0 0 421.000000 320.000000"
 preserveAspectRatio="xMidYMid meet">

<g transform="translate(0.000000,320.000000) scale(0.100000,-0.100000)"
fill="#000000" stroke="none">
<path d="M1270 3157 l-295 -9 -52 -34 c-29 -19 -57 -34 -61 -34 -5 0 -49 -24
-98 -53 -49 -30 -94 -56 -99 -58 -16 -6 -220 -124 -290 -167 -33 -21 -74 -43
-91 -51 -36 -14 -50 -47 -99 -226 -16 -55 -31 -107 -35 -115 -16 -33 -49 -148
-54 -185 -13 -95 -10 -752 3 -774 6 -9 28 -13 179 -26 l74 -7 -6 -32 c-3 -17
-9 -48 -12 -69 -4 -20 -12 -37 -18 -36 -6 1 -34 1 -63 0 -49 -1 -52 -2 -63
-36 -19 -58 2 -80 84 -87 l29 -3 -3 -70 c-8 -165 -8 -170 21 -173 26 -3 26 -4
36 -130 10 -132 32 -201 71 -220 23 -13 336 7 395 24 33 10 60 98 81 258 l11
89 24 -35 c14 -19 44 -47 67 -62 24 -15 66 -47 93 -72 27 -24 52 -44 56 -44 3
0 21 -11 39 -25 18 -14 47 -28 65 -31 24 -5 31 -11 25 -23 -14 -34 -15 -99 -4
-156 7 -33 16 -90 20 -128 10 -92 74 -244 114 -268 16 -10 42 -16 57 -14 15 2
70 7 121 10 57 5 99 13 109 22 25 22 68 124 91 219 l21 85 31 -7 c35 -8 447
-7 486 1 14 2 108 9 210 15 102 6 226 15 275 20 50 5 135 15 190 20 55 6 146
18 202 26 56 7 108 14 115 14 7 0 26 -28 42 -62 33 -70 96 -158 110 -154 21 5
15 25 -19 67 -36 42 -85 128 -85 149 0 5 23 10 53 10 30 0 89 9 132 20 43 11
84 20 92 20 25 0 13 -37 -47 -138 -63 -106 -69 -122 -46 -122 33 0 120 150
140 241 6 28 35 39 138 54 l46 7 -15 -68 c-17 -77 -49 -146 -87 -192 -32 -37
-33 -45 -3 -31 55 26 105 129 122 251 5 38 11 49 28 53 12 3 44 10 72 15 27 6
55 16 61 21 22 18 93 174 105 229 12 57 6 179 -11 210 -6 10 -18 25 -28 32
-15 11 -20 39 -30 149 -18 205 -35 243 -239 545 l-55 81 17 82 c10 52 14 97 9
127 -6 39 -11 48 -38 59 -84 34 -102 26 -114 -55 l-8 -55 -47 65 c-27 36 -79
106 -117 155 -118 153 -279 368 -312 416 -29 43 -37 49 -127 79 -52 17 -127
37 -166 44 l-70 12 -7 44 c-4 25 -16 70 -27 100 l-19 55 -64 13 c-35 7 -101
17 -148 23 -47 6 -116 17 -155 25 -73 16 -175 32 -235 38 -82 8 -218 27 -255
36 -59 13 -310 16 -645 7z m815 -65 c110 -18 263 -41 340 -52 77 -10 181 -27
232 -37 l92 -18 15 -40 c20 -57 29 -115 17 -115 -6 0 -73 11 -149 24 -77 14
-179 28 -228 31 -49 4 -107 9 -129 11 -74 9 -599 11 -705 3 -234 -18 -420 -66
-486 -125 -56 -50 -99 -186 -163 -514 -26 -133 -30 -162 -38 -287 -3 -56 -9
-105 -12 -111 -3 -5 -20 -12 -37 -15 l-31 -6 -7 162 c-4 89 -11 182 -16 207
-12 62 -12 155 1 226 21 118 89 372 129 484 23 63 46 129 51 147 5 18 14 35
20 38 5 4 58 9 117 12 59 2 108 6 110 7 1 2 154 2 340 2 329 -2 342 -2 537
-34z m-1179 -59 c-31 -82 -88 -271 -123 -411 -34 -135 -37 -159 -37 -292 -1
-128 11 -451 17 -483 1 -9 -59 -14 -228 -18 -126 -4 -273 -8 -325 -10 -86 -3
-95 -2 -99 16 -1 10 2 107 8 214 l11 196 77 235 76 235 55 33 c30 17 60 32 66
32 6 1 52 25 101 55 248 148 398 235 407 235 4 0 1 -17 -6 -37z m1299 -157
c28 -3 86 -8 130 -12 95 -7 195 -22 510 -79 138 -25 118 -32 -25 -9 -342 55
-955 67 -1238 24 -74 -11 -138 -20 -143 -20 -5 0 -9 -4 -9 -10 0 -5 14 -10 30
-10 30 0 30 0 31 -60 1 -33 2 -63 3 -67 1 -5 6 -28 10 -52 13 -71 130 -409
175 -505 23 -49 40 -90 39 -91 -9 -6 -230 -46 -234 -42 -3 3 2 45 10 93 28
160 30 258 7 364 -12 52 -28 128 -36 169 -26 127 -44 176 -76 207 -28 27 -34
29 -112 27 l-82 -1 40 15 c43 15 162 38 260 48 163 18 578 24 710 11z m295
-91 c36 -3 94 -10 130 -15 36 -5 90 -12 120 -15 132 -14 395 -64 405 -78 1 -1
104 -138 229 -305 126 -167 225 -306 222 -309 -3 -3 -40 -1 -83 5 -43 6 -125
14 -183 17 -116 6 -170 14 -170 24 0 3 20 5 45 3 47 -4 65 14 23 22 -56 11
-416 40 -540 44 -114 3 -138 1 -138 -11 0 -11 33 -15 168 -20 172 -7 284 -21
311 -38 14 -9 -137 -5 -228 6 -15 2 -114 6 -221 10 -107 4 -220 13 -250 20
-30 7 -48 14 -40 15 8 1 22 3 30 4 8 2 28 3 43 4 17 1 27 7 25 14 -6 16 -170
13 -461 -9 -149 -11 -226 -20 -224 -27 4 -11 39 -11 247 0 155 9 175 9 248 0
120 -15 70 -24 -139 -25 -116 -1 -215 -3 -218 -6 -4 -2 -39 -6 -78 -9 l-71 -6
-15 37 c-8 21 -19 54 -25 73 -6 19 -23 67 -37 105 -91 235 -130 436 -88 448
10 3 68 11 128 17 61 6 119 13 130 15 29 5 627 -4 705 -10z m-1119 -45 c20
-27 59 -164 59 -205 0 -14 9 -51 19 -82 27 -81 32 -209 16 -354 -8 -67 -17
-130 -20 -139 -11 -35 20 -44 98 -31 86 15 157 23 140 15 -8 -3 18 -46 70
-116 163 -219 187 -257 171 -266 -42 -23 -55 -152 -27 -253 13 -48 25 -68 60
-99 64 -56 97 -62 419 -75 159 -7 174 -2 174 60 0 35 -50 158 -69 169 -27 17
-4 22 98 22 60 0 107 -4 105 -8 -3 -4 -12 -8 -20 -8 -43 0 6 -122 83 -208 44
-49 53 -54 118 -67 89 -19 274 -19 530 0 202 14 254 25 287 62 27 30 98 175
104 215 5 28 12 37 29 41 40 7 45 -4 30 -73 -15 -67 -11 -123 9 -138 22 -18
83 -22 122 -9 21 8 52 17 67 21 l29 7 -7 -43 c-4 -24 -10 -46 -14 -50 -4 -4
-72 -14 -151 -22 -137 -14 -188 -17 -490 -32 -69 -3 -163 -9 -210 -14 -189
-18 -1457 -4 -1550 17 -28 7 -39 17 -57 53 -12 25 -25 57 -28 72 -14 69 -135
154 -202 143 -72 -12 -102 -26 -136 -64 -52 -57 -80 -140 -82 -236 -3 -173 -3
-175 -24 -175 -11 0 -23 5 -26 10 -4 6 -21 16 -39 24 -18 8 -58 33 -89 57
l-56 43 -12 86 c-14 99 -17 350 -7 605 8 191 26 444 32 454 2 3 14 60 25 126
40 223 80 353 138 447 26 43 38 46 172 44 88 -1 95 -3 112 -26z m1602 13 c-7
-2 -19 -2 -25 0 -7 3 -2 5 12 5 14 0 19 -2 13 -5z m101 -23 c4 -5 -11 -4 -35
1 -24 6 -46 13 -49 16 -8 9 74 -8 84 -17z m674 -581 c38 -13 47 -44 37 -138
-9 -94 -18 -104 -55 -63 -24 26 -28 36 -20 52 13 25 13 103 0 95 -5 -3 -10
-28 -10 -56 0 -27 -4 -49 -8 -49 -11 0 -2 142 10 158 12 15 8 14 46 1z m-1291
-60 c15 -6 66 -19 113 -28 47 -10 92 -20 100 -22 9 -3 16 4 18 17 3 19 -2 22
-35 22 -21 0 -49 5 -63 11 -28 12 127 7 310 -9 58 -6 160 -12 227 -14 99 -4
143 -11 230 -37 60 -17 116 -36 126 -41 24 -13 52 9 36 28 -6 7 -16 11 -22 9
-7 -3 -32 2 -57 10 l-45 15 65 -5 c176 -15 174 -15 204 -65 l18 -32 -45 6
c-79 11 -522 46 -637 50 -463 19 -1106 14 -1222 -10 -24 -5 -29 0 -47 35 l-21
40 53 6 c193 23 647 32 694 14z m211 -104 c467 -8 907 -39 1018 -70 28 -8 58
-23 67 -32 8 -10 56 -79 105 -153 l89 -135 -33 -53 c-19 -29 -34 -59 -34 -67
0 -29 -52 -35 -304 -41 -138 -3 -287 -7 -331 -9 -44 -1 -243 -6 -443 -10 -319
-7 -364 -6 -380 8 -39 34 -204 127 -253 141 -29 9 -86 16 -126 16 l-73 0 -58
79 c-31 43 -79 109 -107 146 -87 117 -107 146 -103 150 9 9 225 25 423 31 121
3 222 8 224 10 3 3 11 2 19 -1 7 -3 143 -7 300 -10z m-1814 -387 c-4 -123 -8
-224 -9 -226 -5 -6 -35 11 -31 17 3 4 6 99 7 212 1 195 5 218 32 219 4 0 4
-100 1 -222z m-74 187 l0 -25 -142 -1 c-396 -2 -487 -5 -494 -11 -4 -5 21 -8
55 -8 43 0 60 -3 55 -11 -4 -7 -27 -10 -61 -7 -29 3 -56 1 -59 -4 -6 -10 82
-13 401 -13 247 0 250 0 253 -21 3 -19 -3 -22 -55 -27 -32 -4 -110 -4 -173 -2
-63 2 -185 5 -270 7 -153 3 -155 2 -158 -19 -4 -27 11 -30 183 -37 176 -8 459
-29 465 -33 3 -3 7 -47 10 -99 4 -80 3 -93 -10 -89 -8 2 -42 7 -75 10 -33 4
-138 18 -233 31 -95 13 -211 28 -258 33 -47 5 -86 10 -88 12 -2 2 -7 72 -10
155 l-7 151 143 8 c79 4 224 11 323 15 99 4 186 7 193 8 7 1 12 -9 12 -23z m0
-50 c0 -7 -35 -10 -112 -9 -155 1 -166 7 -28 13 63 4 121 6 128 7 6 0 12 -4
12 -11z m-354 -3 c-7 -12 -143 -15 -151 -3 -4 8 20 11 75 11 45 0 79 -3 76 -8z
m44 4 c0 -3 -4 -8 -10 -11 -5 -3 -10 -1 -10 4 0 6 5 11 10 11 6 0 10 -2 10 -4z
m-197 -103 c-7 -2 -19 -2 -25 0 -7 3 -2 5 12 5 14 0 19 -2 13 -5z m480 -9 c20
-3 37 -10 37 -16 0 -7 -23 -8 -67 -5 -88 8 -225 17 -336 22 -49 2 -92 6 -95
10 -8 8 399 -2 461 -11z m1476 -116 c90 -45 192 -115 228 -156 23 -27 63 -123
63 -152 0 -37 -18 -39 -230 -31 -218 9 -247 15 -314 66 -45 34 -71 101 -70
180 0 83 21 121 76 134 78 18 154 6 247 -41z m1790 -42 c24 -72 45 -191 38
-209 -5 -14 -111 -47 -150 -47 -32 0 -47 18 -47 56 0 53 47 214 75 256 25 38
27 39 45 23 11 -10 28 -45 39 -79z m-3567 -71 l56 -7 6 -45 c3 -25 6 -63 6
-83 0 -37 -1 -37 -45 -43 -25 -2 -55 -13 -66 -22 -24 -22 -55 -122 -65 -204
-4 -42 -11 -61 -20 -61 -18 0 -18 55 0 227 16 148 42 256 61 249 6 -2 37 -7
67 -11z m3315 9 c-6 -6 -63 -10 -290 -20 l-149 -6 -10 -28 c-5 -16 -16 -31
-25 -34 -22 -9 -53 22 -53 51 0 20 5 23 43 24 23 1 121 5 217 8 271 11 274 11
267 5z m-1002 -24 c18 -8 17 -9 -7 -9 -16 -1 -28 4 -28 9 0 12 8 12 35 0z
m210 0 c-96 -10 -165 -11 -165 -2 0 4 53 8 118 8 104 2 109 1 47 -6z m-2232
-27 l107 -16 2 -76 c2 -113 5 -149 21 -226 8 -38 14 -71 13 -71 0 -1 -69 -5
-152 -9 l-151 -7 -6 84 c-4 72 -23 207 -43 317 l-7 34 54 -7 c30 -3 102 -14
162 -23z m3022 5 c-12 -42 -66 -148 -91 -177 -14 -16 -39 -34 -57 -40 -60 -18
-275 -33 -509 -34 -220 -1 -235 0 -273 20 -72 39 -147 128 -159 191 l-5 32 52
1 c80 1 219 7 359 14 l127 6 15 -35 c25 -60 89 -63 104 -4 l8 33 165 5 c90 3
188 6 217 8 51 2 53 2 47 -20z m-2327 -57 c49 -25 99 -96 113 -159 6 -28 17
-56 24 -62 12 -10 11 -17 -2 -46 l-17 -34 -34 62 c-43 75 -105 136 -149 144
-101 19 -167 -47 -197 -196 -3 -14 -3 5 -1 42 5 80 59 208 96 230 73 41 115
46 167 19z m-1128 -57 c0 -41 -53 -74 -95 -58 -18 7 -20 45 -3 62 19 19 98 16
98 -4z m221 -83 c4 -19 10 -77 14 -130 4 -69 11 -99 22 -108 15 -11 67 -11
251 2 59 4 62 3 62 -18 -1 -39 -28 -180 -48 -242 l-19 -60 -77 -9 c-57 -6 -81
-5 -89 3 -9 9 -8 11 4 6 13 -5 20 13 42 97 31 123 41 194 29 202 -5 3 -18 3
-29 0 -17 -5 -22 -19 -31 -84 -6 -43 -23 -115 -38 -159 l-27 -81 -41 -1 c-22
0 -58 -2 -78 -5 -32 -4 -40 0 -61 28 -35 46 -47 118 -47 273 0 224 43 331 130
322 19 -1 26 -9 31 -36z m875 -6 c29 -19 84 -92 84 -111 0 -10 -15 -14 -55
-13 -67 2 -85 -12 -113 -84 -21 -52 -52 -195 -52 -235 0 -28 -20 -28 -54 -1
l-27 21 5 121 c6 160 31 249 81 296 32 28 42 32 72 28 19 -4 46 -13 59 -22z
m2710 -76 c16 -18 19 -36 18 -118 0 -91 -3 -101 -43 -191 -23 -52 -46 -98 -50
-103 -9 -9 -89 -28 -216 -52 -49 -9 -103 -21 -120 -25 -16 -5 -52 -11 -80 -14
-27 -3 -75 -10 -105 -16 -101 -18 -314 -49 -380 -55 -36 -3 -87 -10 -115 -15
-27 -5 -79 -12 -115 -14 -36 -3 -146 -12 -245 -21 -99 -8 -225 -18 -280 -22
-140 -10 -553 -5 -593 8 -40 13 -73 56 -102 134 -23 61 -70 238 -70 265 -1 8
-9 33 -19 54 -21 45 -18 110 7 138 12 14 25 17 66 12 28 -4 159 -8 291 -10
132 -2 418 -6 635 -10 250 -4 446 -2 535 5 77 6 190 13 250 16 356 18 653 40
663 50 12 12 50 3 68 -16z m-2602 -91 c33 -46 66 -119 80 -178 29 -120 87
-304 102 -321 8 -8 14 -21 14 -27 0 -6 14 -18 30 -27 17 -9 30 -24 30 -34 0
-60 -70 -253 -101 -277 -16 -13 -189 -27 -189 -16 0 5 4 12 9 17 10 12 28 61
47 135 20 74 20 289 0 415 -17 111 -60 268 -82 302 -8 12 -14 24 -14 27 0 4
70 -10 74 -16z m-90 -33 c27 -48 50 -132 77 -275 28 -148 23 -366 -10 -462
-24 -69 -64 -119 -80 -102 -18 18 -79 169 -86 213 -6 34 -4 42 6 39 8 -3 14
-11 14 -19 1 -42 44 -109 72 -109 65 0 93 348 41 520 -12 39 -45 80 -65 80
-18 0 -53 -60 -52 -90 0 -21 3 -18 19 18 23 50 45 62 65 36 16 -21 20 -38 6
-30 -5 3 -24 -5 -42 -19 -54 -38 -89 -56 -89 -45 0 6 11 58 25 116 27 114 52
177 68 171 5 -1 19 -21 31 -42z m-360 -86 c32 -17 67 -28 77 -26 17 5 19 -1
19 -44 l0 -49 -53 42 c-29 24 -74 57 -99 75 -26 17 -52 42 -59 54 l-12 23 34
-23 c19 -12 60 -35 93 -52z m399 -349 c1 -85 -3 -163 -9 -172 -9 -16 -12 -16
-43 3 -28 17 -32 24 -26 47 4 15 10 67 15 117 6 74 4 100 -10 143 l-18 53 37
25 36 24 9 -42 c4 -24 9 -113 9 -198z m-107 125 l3 -30 -14 25 c-18 31 -19 43
-4 38 7 -2 13 -17 15 -33z m-36 -21 c0 -8 -4 -12 -10 -9 -5 3 -10 10 -10 16 0
5 5 9 10 9 6 0 10 -7 10 -16z m-23 -111 c-2 -16 -4 -5 -4 22 0 28 2 40 4 28 2
-13 2 -35 0 -50z m63 -84 c-7 -24 -15 -38 -20 -33 -6 6 -3 29 5 58 8 27 16 61
17 75 1 14 3 7 5 -16 2 -23 -1 -61 -7 -84z m48 -109 c34 -15 40 -28 20 -48
-21 -21 -37 -13 -53 24 -17 41 -18 47 -7 42 4 -3 22 -11 40 -18z"/>
<path d="M1150 2713 c-23 -9 -36 -26 -42 -53 -3 -14 -16 -61 -27 -105 -32
-116 -92 -401 -98 -462 -4 -41 -1 -60 15 -86 11 -19 23 -47 26 -63 18 -80 74
-97 152 -45 54 36 61 37 92 15 50 -34 141 20 156 93 31 151 28 324 -9 502 -26
122 -46 156 -117 192 -36 18 -115 25 -148 12z m154 -37 c27 -17 27 -16 -17
-166 -26 -87 -55 -224 -59 -272 -3 -32 -5 -33 -28 -13 -22 20 -109 22 -138 4
-12 -8 -25 -22 -28 -32 -3 -10 -8 -16 -11 -13 -5 5 4 46 53 261 48 210 56 232
84 242 36 14 116 8 144 -11z m76 -127 c12 -39 26 -112 31 -162 5 -51 11 -109
15 -129 5 -31 0 -47 -29 -95 -19 -32 -44 -77 -56 -100 -20 -40 -22 -42 -50
-32 -52 18 -62 38 -57 115 4 70 33 223 61 321 8 29 22 78 31 108 8 30 20 53
24 50 5 -3 19 -38 30 -76z m-186 -340 c25 -20 27 -25 20 -76 -6 -48 -4 -57 16
-78 23 -25 59 -40 118 -50 22 -4 31 -2 27 5 -3 5 -13 10 -21 10 -11 0 -7 14
15 58 16 31 37 66 46 77 15 19 16 18 10 -25 -16 -116 -27 -153 -57 -182 -32
-31 -33 -31 -126 -12 -26 5 -40 1 -70 -19 -20 -14 -49 -29 -64 -32 -23 -6 -30
-2 -48 27 -19 29 -21 46 -18 151 3 119 3 119 33 143 37 30 84 31 119 3z m-174
-116 c0 -66 -8 -80 -15 -26 -4 28 4 93 11 93 2 0 4 -30 4 -67z"/>
<path d="M1431 1858 c-7 -29 -14 -87 -16 -128 -2 -41 -1 -61 1 -45 7 43 41
187 49 208 5 11 2 17 -7 17 -9 0 -19 -19 -27 -52z"/>
<path d="M978 1702 c-60 -4 -63 -17 -5 -16 24 0 84 -5 133 -12 227 -33 302
-45 344 -54 25 -6 59 -12 77 -15 42 -7 123 -42 123 -54 0 -13 -26 -21 -67 -21
-29 0 -33 3 -24 14 20 24 2 46 -36 46 -33 0 -35 -2 -29 -26 l7 -27 -68 6 c-37
4 -108 11 -158 16 -143 15 -352 23 -335 13 8 -5 62 -12 120 -16 140 -8 247
-17 294 -25 l40 -6 -1 -70 -1 -70 11 70 c7 39 15 69 20 69 61 -11 199 -14 216
-5 22 12 27 36 13 59 -9 13 -161 52 -277 71 -38 6 -133 21 -210 33 -77 13
-161 22 -187 20z m566 -131 c3 -4 3 -11 0 -14 -8 -8 -34 3 -34 14 0 11 27 12
34 0z"/>
<path d="M960 1646 c0 -4 5 -16 10 -26 8 -16 15 -18 35 -10 13 5 27 5 29 1 3
-5 15 -11 26 -14 16 -4 20 -1 18 11 -2 10 -14 17 -32 19 -16 1 -32 7 -36 14
-6 8 -9 8 -12 -2 -4 -12 -7 -12 -21 0 -10 7 -17 10 -17 7z"/>
<path d="M1400 1590 c0 -5 5 -10 10 -10 6 0 10 5 10 10 0 6 -4 10 -10 10 -5 0
-10 -4 -10 -10z"/>
<path d="M193 1540 c26 -5 96 -11 155 -15 59 -3 148 -10 197 -15 148 -16 235
-20 235 -11 0 7 -91 16 -410 41 -69 5 -147 9 -175 9 l-50 -1 48 -8z"/>
<path d="M147 1512 c-7 -11 152 -31 342 -43 80 -5 180 -11 221 -14 58 -3 67
-2 40 5 -19 5 -105 14 -190 20 -166 11 -338 27 -382 36 -14 3 -29 1 -31 -4z"/>
<path d="M3273 1364 c-8 -21 13 -42 28 -27 13 13 5 43 -11 43 -6 0 -13 -7 -17
-16z"/>
<path d="M3651 1323 c1 -21 4 -63 9 -93 7 -53 7 -52 9 32 0 49 -3 90 -9 93 -6
4 -10 -9 -9 -32z"/>
<path d="M3689 1356 c-8 -8 3 -126 11 -121 5 3 6 31 4 62 -5 59 -7 66 -15 59z"/>
<path d="M3728 1330 c2 -16 6 -30 8 -30 2 0 4 14 4 30 0 17 -4 30 -8 30 -5 0
-7 -13 -4 -30z"/>
<path d="M3137 1343 c-4 -8 -4 -14 7 -68 4 -16 9 -55 12 -85 3 -30 10 -59 15
-65 12 -12 12 -11 -6 114 -15 105 -19 119 -28 104z"/>
<path d="M3183 1320 c4 -19 9 -69 13 -110 6 -74 9 -88 19 -79 8 9 -16 204 -27
214 -7 7 -9 0 -5 -25z"/>
<path d="M3393 1283 c4 -38 7 -85 7 -105 0 -21 5 -38 11 -38 7 0 8 29 3 88 -3
48 -7 95 -7 105 -1 9 -5 17 -11 17 -5 0 -6 -28 -3 -67z"/>
<path d="M3431 1315 c-1 -66 11 -175 19 -170 9 6 0 163 -11 190 -6 15 -8 10
-8 -20z"/>
<path d="M3578 1250 c2 -62 7 -100 14 -100 6 0 8 12 4 31 -3 17 -6 62 -6 100
0 38 -3 69 -7 69 -5 0 -7 -45 -5 -100z"/>
<path d="M3614 1291 c3 -35 6 -80 6 -99 0 -19 3 -32 6 -29 11 11 4 171 -8 182
-7 7 -9 -9 -4 -54z"/>
<path d="M2788 1335 c-6 -6 34 -161 45 -171 12 -12 8 12 -14 94 -22 82 -23 85
-31 77z"/>
<path d="M2826 1313 c16 -70 48 -169 57 -178 7 -7 8 -5 5 5 -3 8 -15 57 -28
108 -13 50 -27 92 -32 92 -5 0 -6 -12 -2 -27z"/>
<path d="M2910 1334 c0 -9 40 -185 46 -204 4 -12 6 -12 14 -1 5 8 2 33 -6 60
-8 25 -20 70 -26 99 -6 28 -15 52 -19 52 -5 0 -9 -3 -9 -6z"/>
<path d="M2954 1323 c2 -10 14 -60 26 -110 13 -51 26 -93 30 -93 4 0 -1 42
-11 93 -24 115 -28 127 -40 127 -6 0 -8 -8 -5 -17z"/>
<path d="M3000 1332 c0 -32 44 -212 52 -212 5 0 7 8 4 18 -3 9 -13 55 -22 102
-15 75 -34 126 -34 92z"/>
<path d="M3048 1334 c-5 -9 29 -195 38 -203 12 -13 15 13 5 53 -6 24 -13 61
-17 81 -8 49 -19 81 -26 69z"/>
<path d="M3094 1313 c3 -16 11 -59 17 -98 11 -69 28 -118 29 -85 1 35 -34 210
-43 210 -5 0 -6 -12 -3 -27z"/>
<path d="M3357 1245 c3 -55 10 -104 15 -110 7 -7 8 20 4 78 -10 128 -26 155
-19 32z"/>
<path d="M3470 1247 c0 -59 4 -98 11 -103 8 -5 9 21 4 92 -4 55 -9 101 -11
103 -2 2 -4 -39 -4 -92z"/>
<path d="M3504 1279 c3 -34 6 -77 6 -95 0 -19 3 -34 8 -34 4 0 6 43 4 95 -2
59 -7 95 -14 95 -7 0 -9 -20 -4 -61z"/>
<path d="M3540 1247 c0 -66 4 -97 11 -97 8 0 10 26 5 92 -3 50 -8 93 -11 96
-3 3 -5 -38 -5 -91z"/>
<path d="M2716 1308 c3 -13 10 -30 15 -38 7 -12 8 -10 9 7 0 28 -10 53 -22 53
-5 0 -6 -10 -2 -22z"/>
<path d="M2754 1313 c3 -10 10 -37 15 -61 10 -46 21 -67 21 -39 0 31 -24 117
-32 117 -5 0 -7 -8 -4 -17z"/>
<path d="M2889 1236 c24 -84 41 -128 41 -100 -1 30 -48 188 -57 191 -6 2 2
-39 16 -91z"/>
<path d="M3236 1228 c3 -40 11 -80 16 -88 6 -10 8 -2 4 25 -3 22 -6 61 -6 88
0 26 -5 47 -11 47 -7 0 -8 -24 -3 -72z"/>
<path d="M3322 1225 c0 -33 3 -69 8 -80 11 -26 11 67 0 110 -6 24 -8 18 -8
-30z"/>
<path d="M3285 1215 c2 -33 4 -67 5 -74 0 -10 3 -11 9 -5 6 5 4 34 -4 74 l-14
65 4 -60z"/>
<path d="M478 1185 c-4 -4 1 -26 10 -49 14 -33 17 -72 16 -196 0 -135 -4 -167
-26 -248 -15 -53 -22 -92 -15 -89 14 4 42 107 62 226 15 87 15 106 1 198 -16
104 -36 170 -48 158z"/>
<path d="M438 1093 c-51 -57 -63 -341 -17 -396 18 -21 20 -21 33 -5 22 30 37
156 34 288 -2 103 -6 125 -19 128 -8 1 -22 -5 -31 -15z m32 -148 c0 -115 -13
-218 -31 -239 -13 -15 -29 67 -29 153 0 70 20 186 37 214 15 25 23 -19 23
-128z"/>
<path d="M3515 985 c-60 -8 -116 -14 -123 -14 -9 -1 -12 -12 -10 -33 3 -33 3
-33 58 -33 30 0 80 3 110 7 30 4 85 10 121 13 102 9 124 17 124 46 0 23 -2 24
-85 25 -47 1 -134 -4 -195 -11z m255 -10 c15 -18 14 -18 -199 -40 -138 -15
-165 -15 -172 -4 -5 9 -3 16 9 20 15 6 185 25 287 33 22 1 45 3 51 4 6 1 17
-5 24 -13z"/>
<path d="M2965 955 c-137 -7 -251 -13 -253 -13 -2 -1 -2 -17 0 -34 l3 -33 250
4 c254 3 296 9 303 42 3 19 -24 50 -41 47 -7 0 -124 -6 -262 -13z m285 -31 c0
-8 -3 -14 -7 -14 -5 -1 -82 -3 -173 -6 -91 -2 -204 -6 -253 -8 -83 -4 -111 4
-90 25 9 9 486 28 511 21 6 -2 12 -10 12 -18z"/>
<path d="M3980 919 c-36 -4 -108 -12 -160 -18 -52 -6 -122 -15 -155 -21 -65
-11 -191 -24 -405 -40 -74 -5 -175 -14 -225 -20 -162 -17 -466 -32 -635 -31
-233 3 -630 -10 -624 -20 5 -8 720 -4 889 6 55 3 141 8 190 11 50 2 133 9 185
14 52 5 165 14 250 20 223 15 261 19 395 40 153 24 176 27 255 35 146 13 170
17 170 26 0 10 -35 10 -130 -2z"/>
<path d="M3965 810 c-36 -40 7 -96 55 -70 27 14 27 65 1 80 -27 14 -35 13 -56
-10z m63 -27 c-4 -20 -35 -30 -50 -15 -15 15 0 32 28 32 19 0 25 -5 22 -17z"/>
<path d="M2276 687 c-24 -20 -27 -28 -21 -55 12 -54 63 -76 120 -50 19 8 25
19 25 42 -1 70 -71 106 -124 63z m87 -22 c23 -17 19 -58 -6 -63 -10 -2 -29 -1
-43 2 -42 11 -24 75 21 75 6 0 18 -6 28 -14z"/>
<path d="M3515 250 c7 -12 54 -12 110 -1 35 8 30 9 -38 10 -50 1 -76 -3 -72
-9z"/>
</g>
</svg>
